:SAMPLES-PER-SECOND 30
:FULLY-SPECIFIED
:DEGREES
389
root  -2.64809 38.3593 -2.0579 171.412 -69.1811 179.875
RightUpLeg  23.1502 -10.1696 -4.49487
RightLeg  12.4091 6.13969 1.81959
RightFoot  -19.8438 0.0722776 2.75385
RightToes  -2.21189e-009 0 -3.6325e-017
Spine  4.82436 0.280434 4.88855
Spine1  8.89379 1.83912 -5.16803
HEad  -18.7184 -0.71408 -5.21908
LeftShoulder1  -0.271316 4.24317 -30.4739
LeftArm  2.12677 17.7656 -38.6568
LeftForeArm  17.525 -18.0556 -5.37854
LeftHand  -0.0263337 4.00676 0.288709
RightShoulder  -0.509846 -5.00259 27.1859
RightArm  13.3817 -3.01892 45.0961
RightForeArm  8.34974 7.78653 7.16375
RightHand  -0.309636 4.00625 -4.08462
LeftUpLeg  -12.363 4.5155 -3.2621
LeftLeg  4.07873 18.8264 -1.76232
LeftFoot  10.1221 -2.04047 10.7214
LeftToes  -4.03379e-008 1.61488e-010 -5.81581e-011
390
root  -3.86724 38.3214 -2.38463 176.369 -69.627 174.337
RightUpLeg  23.3716 -10.5417 -7.91939
RightLeg  16.9908 8.29179 2.62753
RightFoot  -19.7769 0.365663 6.75075
RightToes  -2.21189e-009 0 -3.6325e-017
Spine  4.66662 0.195941 1.957
Spine1  8.55271 1.51092 -5.23836
HEad  -19.4892 0.845772 -6.22485
LeftShoulder1  -0.406724 4.58233 -31.6169
LeftArm  0.380186 15.8316 -36.8923
LeftForeArm  17.5522 -15.8072 -6.17194
LeftHand  -0.0468451 2.9498 1.58165
RightShoulder  -0.578977 -5.18669 27.6539
RightArm  12.076 -3.97517 45.922
RightForeArm  11.352 5.52599 6.74651
RightHand  -0.232535 3.40285 -3.31877
LeftUpLeg  -12.8188 4.62356 -5.78793
LeftLeg  9.40634 18.2318 0.0531995
LeftFoot  8.59221 -2.44083 13.5119
LeftToes  -4.03379e-008 1.61488e-010 -5.81581e-011
391
root  -4.98281 38.3399 -2.64694 -179.413 -70.7538 169.756
RightUpLeg  21.5674 -10.3046 -10.4618
RightLeg  24.5169 9.15174 4.327
RightFoot  -17.5385 0.553359 12.8036
RightToes  -2.21189e-009 0 -3.6325e-017
Spine  5.11576 -0.0139836 -0.0529876
Spine1  7.49494 1.10929 -5.93526
HEad  -18.8137 1.28527 -6.95075
LeftShoulder1  -0.31536 4.34176 -31.5068
LeftArm  -3.80478 13.1819 -36.8246
LeftForeArm  20.0145 -11.1407 -7.30654
LeftHand  -0.053764 3.71632 2.49985
RightShoulder  -0.541593 -5.07927 27.58
RightArm  9.73698 -6.36863 47.3807
RightForeArm  12.7103 4.03776 5.86734
RightHand  -0.211083 2.58389 -3.28783
LeftUpLeg  -12.1309 5.29853 -7.90999
LeftLeg  12.1312 16.6605 0.812755
LeftFoot  6.05956 -2.11175 13.4898
LeftToes  -4.03379e-008 1.61488e-010 -5.81581e-011
392
root  -5.988 38.3973 -2.80404 -177.275 -70.6237 167.516
RightUpLeg  16.9828 -8.3147 -11.6493
RightLeg  34.7471 9.04654 6.43332
RightFoot  -11.701 -0.0297299 18.662
RightToes  -2.21189e-009 0 -3.6325e-017
Spine  5.29252 0.295338 -0.0570088
Spine1  7.53009 1.54773 -7.59774
HEad  -18.9396 0.960099 -8.59395
LeftShoulder1  -0.196643 4.02745 -31.391
LeftArm  -5.7912 9.57403 -37.7507
LeftForeArm  21.5319 -7.38203 -7.60614
LeftHand  -0.0373115 4.80708 2.26929
RightShoulder  -0.468499 -4.89242 26.8527
RightArm  8.60867 -8.0885 49.1654
RightForeArm  12.2838 3.57191 5.50993
RightHand  -0.190563 1.87241 -3.2173
LeftUpLeg  -11.3066 4.9273 -8.83599
LeftLeg  13.9132 17.2608 1.36392
LeftFoot  3.92214 -1.8353 13.4445
LeftToes  -4.03379e-008 1.61488e-010 -5.81581e-011
393
root  -6.91311 38.4331 -2.94118 -174.967 -69.5953 164.902
RightUpLeg  10.7767 -4.67412 -12.4938
RightLeg  45.8397 7.94394 8.41259
RightFoot  -2.96065 -1.40652 19.6869
RightToes  -2.21189e-009 0 -3.6325e-017
Spine  6.271 0.855313 -0.371027
Spine1  6.91996 2.22296 -9.19475
HEad  -19.9454 1.57368 -9.47261
LeftShoulder1  -0.0912196 3.74964 -31.0414
LeftArm  -6.28173 6.64755 -39.2416
LeftForeArm  23.2566 -5.70241 -7.43314
LeftHand  -0.0236301 5.7636 1.43655
RightShoulder  -0.354748 -4.57099 26.19
RightArm  9.75008 -8.57773 50.3947
RightForeArm  12.983 3.78246 6.04595
RightHand  -0.152487 1.97161 -2.58169
LeftUpLeg  -10.0481 4.42527 -9.73943
LeftLeg  14.9031 18.9086 1.57785
LeftFoot  1.95101 -1.54369 13.0868
LeftToes  -4.03379e-008 1.61488e-010 -5.81581e-011
